<svg width="73" height="63" viewBox="0 0 73 63" fill="none" xmlns="http://www.w3.org/2000/svg">
<g clip-path="url(#clip0)">
<path d="M61.5099 32.1095H72.3699V29.1095H61.4299C60.2899 16.0895 49.3399 5.84952 36.0299 5.84952C30.8599 5.84952 26.0599 7.39952 22.0399 10.0495C21.8499 7.87952 22.6399 5.65952 24.4099 3.87952L22.2899 1.75952C20.7499 3.29952 18.7799 4.14952 16.7499 4.14952C14.7199 4.14952 12.7499 3.29952 11.2099 1.75952L9.08989 3.87952C12.2999 7.08952 12.2999 11.7495 9.08989 14.9595L11.2099 17.0795C12.7499 15.5395 14.7199 14.6895 16.7499 14.6895C12.8799 19.1595 10.5299 24.9895 10.5299 31.3495C10.5299 32.1095 10.5699 32.8595 10.6399 33.6095H6.38989V36.6095H11.0899C13.5199 48.1595 23.7799 56.8495 36.0399 56.8495C41.6299 56.8495 46.7999 55.0395 50.9999 51.9795H58.4299V48.9795H54.4399C58.6599 44.5695 61.3199 38.6395 61.5099 32.1095ZM14.1599 6.80952C15.8499 7.24952 17.6599 7.24952 19.3499 6.80952C18.9099 8.51952 18.9099 10.2995 19.3499 12.0095C18.4999 11.7895 17.6299 11.6795 16.7499 11.6795C15.8799 11.6795 15.0099 11.7895 14.1599 12.0095C14.5999 10.2995 14.5999 8.51952 14.1599 6.80952ZM36.0299 53.8495C25.4299 53.8495 16.5299 46.4795 14.1599 36.6095H18.6899V33.6095H13.6499C13.5799 32.8695 13.5399 32.1195 13.5399 31.3495C13.5399 25.1695 16.0499 19.5595 20.0899 15.4895C20.8799 15.8795 21.6299 16.4095 22.2999 17.0795L24.4199 14.9595C23.8299 14.3695 23.3499 13.7295 22.9699 13.0495C26.6599 10.4095 31.1699 8.84952 36.0399 8.84952C47.6899 8.84952 57.2999 17.7495 58.4299 29.1095H54.3999V32.1095H58.5099C58.2799 38.9395 54.9999 44.9995 49.9799 48.9795H39.4999V51.9795H44.9999C42.2499 53.1795 39.2199 53.8495 36.0299 53.8495Z" fill="#161513"/>
<path d="M72.3999 38.9695L70.2799 36.8495C68.3199 38.8095 65.4799 38.8095 63.5199 36.8495L61.3999 38.9695C63.3599 40.9295 63.3599 43.7695 61.3999 45.7295L63.5199 47.8495C65.4799 45.8895 68.3199 45.8895 70.2799 47.8495L72.3999 45.7295C70.4399 43.7695 70.4399 40.9295 72.3999 38.9695ZM68.0199 43.4695C67.6499 43.4095 67.2799 43.3895 66.8999 43.3895C66.5199 43.3895 66.1499 43.4195 65.7799 43.4695C65.8399 43.0995 65.8599 42.7295 65.8599 42.3495C65.8599 41.9695 65.8299 41.5995 65.7799 41.2295C66.5199 41.3395 67.2799 41.3395 68.0199 41.2295C67.9599 41.5995 67.9399 41.9695 67.9399 42.3495C67.9399 42.7295 67.9699 43.0995 68.0199 43.4695Z" fill="#161513"/>
<path d="M30.04 24.1195C28.33 24.1195 26.95 22.7295 26.95 21.0295C26.95 19.3295 28.34 17.9395 30.04 17.9395C31.75 17.9395 33.13 19.3295 33.13 21.0295H36.13C36.13 17.6695 33.4 14.9395 30.04 14.9395C26.68 14.9395 23.95 17.6695 23.95 21.0295C23.95 24.3895 26.68 27.1195 30.04 27.1195V24.1195Z" fill="#161513"/>
<path d="M44.73 25.4195C44.73 23.7095 46.12 22.3295 47.82 22.3295C49.53 22.3295 50.91 23.7195 50.91 25.4195H53.91C53.91 22.0595 51.18 19.3295 47.82 19.3295C44.46 19.3295 41.73 22.0595 41.73 25.4195H44.73Z" fill="#161513"/>
<path d="M32.4401 31.9895C29.0801 31.9895 26.3501 34.7195 26.3501 38.0795H29.3501C29.3501 36.3695 30.7401 34.9895 32.4401 34.9895C34.1501 34.9895 35.5301 36.3795 35.5301 38.0795C35.5301 39.7895 34.1401 41.1695 32.4401 41.1695V44.1695C35.8001 44.1695 38.5301 41.4395 38.5301 38.0795C38.5301 34.7195 35.8001 31.9895 32.4401 31.9895Z" fill="#161513"/>
<path d="M46.9099 38.0895H43.9099V41.0895H46.9099V38.0895Z" fill="#161513"/>
<path d="M42.48 14.5895H39.48V17.5895H42.48V14.5895Z" fill="#161513"/>
<path d="M6.62 24.1395H0V27.1395H6.62V24.1395Z" fill="#161513"/>
<path d="M53.4501 0.489502H37.3701V3.4895H53.4501V0.489502Z" fill="#161513"/>
<path d="M31.58 59.8995H22.01V62.8995H31.58V59.8995Z" fill="#161513"/>
</g>
<defs>
<clipPath id="clip0">
<rect width="72.4" height="62.41" fill="white" transform="translate(0 0.489502)"/>
</clipPath>
</defs>
</svg>
