<svg width="61" height="65" viewBox="0 0 61 65" fill="none" xmlns="http://www.w3.org/2000/svg">
<g clip-path="url(#clip0)">
<path d="M59.54 46C56.24 43.84 52.69 42.06 48.99 40.66C52.36 36.45 54.39 31.11 54.39 25.31C54.39 24.76 54.37 24.22 54.33 23.68C54.32 23.54 54.31 23.41 54.3 23.27C54.26 22.77 54.21 22.27 54.13 21.78C54.12 21.73 54.12 21.69 54.11 21.64C54.03 21.1 53.93 20.56 53.81 20.03C53.78 19.91 53.75 19.79 53.73 19.67C53.62 19.2 53.5 18.74 53.36 18.29C53.34 18.23 53.33 18.17 53.31 18.12L53.15 17.59L53.13 17.58C49.88 7.78995 40.64 0.699951 29.77 0.699951C18.9 0.699951 9.66 7.78995 6.41 17.58L6.39 17.59L6.23 18.12C6.21 18.18 6.2 18.24 6.18 18.29C6.04 18.75 5.92 19.21 5.81 19.67C5.78 19.79 5.75 19.91 5.73 20.03C5.61 20.56 5.51 21.09 5.43 21.64C5.42 21.69 5.42 21.73 5.41 21.78C5.34 22.27 5.29 22.77 5.24 23.27C5.23 23.41 5.22 23.54 5.21 23.68C5.17 24.22 5.15 24.76 5.15 25.31C5.15 31.11 7.17 36.45 10.55 40.66C6.85 42.06 3.31 43.84 0 46L1.64 48.51C4.45 46.67 7.45 45.1199 10.57 43.8699V58.22H13.57V43.83C17.41 47.2 22.11 49.26 27.17 49.78C27.2 49.78 27.23 49.79 27.27 49.79C27.62 49.82 27.97 49.8499 28.32 49.8699C28.39 49.8699 28.45 49.88 28.52 49.88C28.93 49.9 29.35 49.91 29.77 49.91C30.19 49.91 30.6 49.9 31.02 49.88C31.09 49.88 31.15 49.8699 31.22 49.8699C31.57 49.8499 31.92 49.82 32.27 49.79C32.3 49.79 32.33 49.78 32.36 49.78C37.36 49.26 42.02 47.25 45.83 43.95V57.43C41.01 60.1399 35.51 61.63 29.77 61.63V64.63C42.06 64.63 53.35 58.44 59.98 48.06L60.78 46.81L59.54 46ZM29.77 3.69995C38 3.69995 45.17 8.32995 48.82 15.12C42.92 12.15 36.42 10.58 29.77 10.58C23.12 10.58 16.61 12.16 10.72 15.12C14.36 8.32995 21.53 3.69995 29.77 3.69995ZM8.2 23.98C8.21 23.85 8.22 23.73 8.23 23.61C8.26 23.27 8.29 22.94 8.33 22.61C8.34 22.49 8.36 22.38 8.37 22.26C8.49 21.3899 8.67 20.53 8.9 19.69C8.91 19.63 8.93 19.58 8.95 19.52C15.2 15.63 22.39 13.58 29.77 13.58C37.15 13.58 44.33 15.63 50.59 19.52C50.61 19.58 50.62 19.63 50.64 19.69C50.87 20.54 51.04 21.4 51.17 22.26C51.19 22.38 51.2 22.49 51.21 22.61C51.25 22.94 51.29 23.28 51.31 23.61C51.32 23.73 51.33 23.86 51.34 23.98C51.37 24.42 51.38 24.86 51.38 25.31C51.38 31.18 49.03 36.5 45.22 40.4C44.81 40.82 44.38 41.22 43.94 41.61C43.82 41.7099 43.71 41.81 43.59 41.91C43.18 42.2599 42.75 42.5799 42.32 42.8899C42.13 43.02 41.95 43.16 41.76 43.28C41.38 43.54 40.98 43.78 40.58 44.01C40.31 44.17 40.03 44.32 39.75 44.47C39.4 44.65 39.05 44.82 38.69 44.99C38.4 45.12 38.11 45.25 37.81 45.3699C37.41 45.5299 37.02 45.68 36.61 45.81C36.37 45.89 36.13 45.97 35.88 46.04C35.38 46.19 34.87 46.32 34.36 46.43C34.22 46.4599 34.07 46.49 33.93 46.52C33.31 46.6399 32.68 46.74 32.04 46.81C31.99 46.81 31.95 46.82 31.9 46.82C31.2 46.8899 30.48 46.93 29.77 46.93C29.05 46.93 28.34 46.8899 27.64 46.82C27.59 46.82 27.55 46.81 27.5 46.81C26.86 46.74 26.23 46.6399 25.61 46.52C25.47 46.49 25.33 46.4599 25.19 46.43C24.67 46.32 24.17 46.19 23.66 46.04C23.42 45.97 23.18 45.89 22.94 45.81C22.53 45.67 22.13 45.5299 21.73 45.3699C21.44 45.25 21.15 45.13 20.86 45C20.5 44.84 20.14 44.66 19.79 44.4799C19.51 44.3299 19.24 44.18 18.97 44.03C18.57 43.8 18.17 43.5499 17.78 43.29C17.59 43.17 17.41 43.04 17.23 42.91C16.79 42.5999 16.37 42.27 15.95 41.93C15.83 41.83 15.72 41.7299 15.6 41.63C15.16 41.25 14.73 40.85 14.32 40.42C10.51 36.52 8.16 31.2 8.16 25.33C8.16 24.87 8.17 24.42 8.2 23.98ZM48.83 55.53V43.81C51.53 44.89 54.14 46.18 56.61 47.7C54.44 50.78 51.8 53.4 48.83 55.53Z" fill="#161513"/>
<path d="M26.88 53.9H24.25V56.53H26.88V53.9Z" fill="#161513"/>
<path d="M42.46 53.71H32.75V56.71H42.46V53.71Z" fill="#161513"/>
<path d="M47.8701 23.3199H44.8701V30.1699H47.8701V23.3199Z" fill="#161513"/>
</g>
<defs>
<clipPath id="clip0">
<rect width="60.78" height="63.93" fill="white" transform="translate(0 0.699951)"/>
</clipPath>
</defs>
</svg>
