<svg width="58" height="58" viewBox="0 0 58 58" fill="none" xmlns="http://www.w3.org/2000/svg">
<g clip-path="url(#clip0)">
<path d="M51.39 54.6V11.21H40.45V54.6H36.6V23.71H25.66V54.6H22.2V36.21H11.27V54.6H6V57.6H11.27H22.2H25.66H36.6H40.45H51.39H57.17V54.6H51.39ZM14.27 54.6V39.21H19.21V54.6H14.27ZM28.66 54.6V26.71H33.6V54.6H28.66ZM43.45 54.6V14.21H48.39V54.6H43.45Z" fill="#161513"/>
<path d="M33.6 12.6H36.6V0.699951H24.7V3.69995H31.48L0 35.18L2.12 37.2999L33.6 5.81995V12.6Z" fill="#161513"/>
</g>
<defs>
<clipPath id="clip0">
<rect width="57.17" height="56.9" fill="white" transform="translate(0 0.699951)"/>
</clipPath>
</defs>
</svg>
