<svg width="51" height="57" viewBox="0 0 51 57" fill="none" xmlns="http://www.w3.org/2000/svg">
<g clip-path="url(#clip0)">
<path d="M38 5.44995V0.949951H35V5.44995H16V0.949951H13V5.44995H0V56.45H51V5.44995H38ZM48 53.45H3V20.45H30.5V17.45H3V8.44995H13V12.95H16V8.44995H35V12.95H38V8.44995H48V53.45Z" fill="#161513"/>
<path d="M42.68 23.48L39.5 26.66L36.32 23.48L34.2 25.6L37.38 28.78L34.2 31.97L36.32 34.09L39.5 30.9L42.68 34.09L44.7999 31.97L41.6199 28.78L44.7999 25.6L42.68 23.48Z" fill="#161513"/>
<path d="M13.7399 31.8799C15.452 31.8799 16.8399 30.492 16.8399 28.7799C16.8399 27.0678 15.452 25.6799 13.7399 25.6799C12.0278 25.6799 10.6399 27.0678 10.6399 28.7799C10.6399 30.492 12.0278 31.8799 13.7399 31.8799Z" fill="#161513"/>
<path d="M25.4999 31.8799C27.212 31.8799 28.5999 30.492 28.5999 28.7799C28.5999 27.0678 27.212 25.6799 25.4999 25.6799C23.7878 25.6799 22.3999 27.0678 22.3999 28.7799C22.3999 30.492 23.7878 31.8799 25.4999 31.8799Z" fill="#161513"/>
<path d="M18.0601 37.48L14.8801 40.66L11.7001 37.48L9.58008 39.6L12.7601 42.78L9.58008 45.97L11.7001 48.09L14.8801 44.9L18.0601 48.09L20.1901 45.97L17.0001 42.78L20.1901 39.6L18.0601 37.48Z" fill="#161513"/>
<path d="M40.6501 45.8799C42.3621 45.8799 43.75 44.492 43.75 42.7799C43.75 41.0679 42.3621 39.6799 40.6501 39.6799C38.938 39.6799 37.55 41.0679 37.55 42.7799C37.55 44.492 38.938 45.8799 40.6501 45.8799Z" fill="#161513"/>
<path d="M28.88 45.8799C30.5921 45.8799 31.98 44.492 31.98 42.7799C31.98 41.0679 30.5921 39.6799 28.88 39.6799C27.1679 39.6799 25.78 41.0679 25.78 42.7799C25.78 44.492 27.1679 45.8799 28.88 45.8799Z" fill="#161513"/>
</g>
<defs>
<clipPath id="clip0">
<rect width="51" height="55.5" fill="white" transform="translate(0 0.949951)"/>
</clipPath>
</defs>
</svg>
