<svg width="54" height="52" viewBox="0 0 54 52" fill="none" xmlns="http://www.w3.org/2000/svg">
<g clip-path="url(#clip0)">
<path d="M30.84 11.2999H7.04004V14.2999H30.84V11.2999Z" fill="#161513"/>
<path d="M15.81 29.1699H7.04004V32.1699H15.81V29.1699Z" fill="#161513"/>
<path d="M15.81 38.1H7.04004V41.1H15.81V38.1Z" fill="#161513"/>
<path d="M20.4 30.59L18.17 39.22C18.04 39.7299 18.19 40.2799 18.56 40.66C18.85 40.95 19.23 41.1 19.62 41.1C19.75 41.1 19.87 41.0799 20 41.0499L28.63 38.82C28.89 38.75 29.13 38.6199 29.32 38.43L51.5 16.25C53.85 13.9 53.85 10.07 51.5 7.71995C50.36 6.57995 48.85 5.94995 47.24 5.94995C45.63 5.94995 44.11 6.57995 42.98 7.71995L37.89 12.81V0.699951H0V51.7H37.88V40.1199H34.88V48.7H3V3.69995H34.88V15.81L30.46 20.23H7.04V23.23H27.46L20.79 29.9C20.6 30.1 20.46 30.33 20.4 30.59ZM22.65 33.8899L25.34 36.58L21.71 37.52L22.65 33.8899ZM49.38 9.84995C50.56 11.03 50.56 12.95 49.38 14.14L49.14 14.38L44.85 10.1L45.09 9.85995C46.24 8.69995 48.24 8.69995 49.38 9.84995ZM42.73 12.21L47.02 16.49L28.26 35.25L23.98 30.97L37.83 17.12H37.9V17.05L42.73 12.21Z" fill="#161513"/>
</g>
<defs>
<clipPath id="clip0">
<rect width="53.26" height="51" fill="white" transform="translate(0 0.699951)"/>
</clipPath>
</defs>
</svg>
