<svg width="60" height="64" viewBox="0 0 60 64" fill="none" xmlns="http://www.w3.org/2000/svg">
<g clip-path="url(#clip0)">
<path d="M37.2401 42.8101C40.9701 40.0101 44.8001 36.7901 47.4801 33.6801C57.4401 22.0901 58.4401 7.79005 58.4701 7.19005L58.5801 5.49005L56.8801 5.60005C56.2801 5.64005 41.9801 6.64005 30.3901 16.5901C27.5001 19.0701 24.5201 22.5601 21.8601 26.0301L2.84009 30.0401L12.6101 39.8101L12.5801 39.87L24.2001 51.5001L24.2601 51.4701L33.4801 60.69L37.2401 42.8101ZM49.6301 25.3901L38.6901 14.4501C45.4501 10.6301 52.1601 9.26005 55.2701 8.81005C54.8201 11.9201 53.4601 18.6201 49.6301 25.3901ZM19.2001 29.6601C17.0301 32.7201 15.2601 35.4801 14.2101 37.1601L8.88009 31.8301L19.2001 29.6601ZM22.6901 29.9701C22.7001 29.9601 22.7101 29.9501 22.7201 29.9301C25.6301 25.9301 29.1001 21.6701 32.3601 18.8601C33.5701 17.8201 34.8201 16.9001 36.0701 16.0601L48.0101 28.0001C47.1701 29.2601 46.2501 30.51 45.2101 31.7101C39.6001 38.25 28.1101 45.5901 24.6701 47.7201L16.3601 39.41C17.4201 37.69 19.7801 33.9701 22.6901 29.9701ZM26.9101 49.8601C28.4501 48.9001 30.8901 47.34 33.6301 45.4201L31.6901 54.6401L26.9101 49.8601Z" fill="#161513"/>
<path d="M35.33 35.76C37.13 35.76 38.92 35.08 40.29 33.71C43.02 30.98 43.02 26.53 40.29 23.79C37.55 21.05 33.1 21.06 30.37 23.79C27.64 26.53 27.64 30.98 30.37 33.71C31.73 35.08 33.53 35.76 35.33 35.76ZM32.49 25.91C33.27 25.13 34.3 24.74 35.33 24.74C36.36 24.74 37.39 25.13 38.17 25.91C39.74 27.48 39.74 30.02 38.17 31.59C36.61 33.15 34.06 33.16 32.49 31.59C30.92 30.02 30.92 27.47 32.49 25.91Z" fill="#161513"/>
<path d="M14.8139 47.1403L2.02954 59.9246L4.15084 62.0459L16.9352 49.2616L14.8139 47.1403Z" fill="#161513"/>
<path d="M10.917 43.2362L0.671143 53.4821L2.79244 55.6034L13.0383 45.3575L10.917 43.2362Z" fill="#161513"/>
<path d="M18.7171 51.0351L8.47119 61.281L10.5925 63.4023L20.8384 53.1564L18.7171 51.0351Z" fill="#161513"/>
<path d="M34.6791 -0.00251179L19.2361 15.4406L21.3574 17.5619L36.8004 2.11879L34.6791 -0.00251179Z" fill="#161513"/>
<path d="M57.2196 35.0871L45.5454 46.7613L47.6667 48.8826L59.3409 37.2084L57.2196 35.0871Z" fill="#161513"/>
<path d="M13.7255 9.93693L7.41821 16.2443L9.53951 18.3656L15.8468 12.0582L13.7255 9.93693Z" fill="#161513"/>
<path d="M55.2472 48.6691L42.7881 61.1282L44.9094 63.2495L57.3685 50.7904L55.2472 48.6691Z" fill="#161513"/>
</g>
<defs>
<clipPath id="clip0">
<rect width="58.66" height="63.4" fill="white" transform="translate(0.669922)"/>
</clipPath>
</defs>
</svg>
