<svg width="16" height="16" viewBox="0 0 16 16" fill="none" xmlns="http://www.w3.org/2000/svg">
<path d="M7.71284 15.7008C11.7999 15.7008 15.1132 12.3244 15.1132 8.15936C15.1132 3.99434 11.7999 0.61792 7.71284 0.61792C3.62574 0.61792 0.3125 3.99434 0.3125 8.15936C0.3125 12.3244 3.62574 15.7008 7.71284 15.7008Z" fill="#D7D7D7"/>
<path d="M6.5083 5.98502C6.5083 6.19775 6.5083 7.05041 6.5083 7.05041H5.70239V8.35992H6.5083V12.2867H8.12183V8.35992H9.19809C9.19809 8.35992 9.28707 7.71999 9.37775 7.02077C9.25798 7.02077 8.15263 7.02077 8.15263 7.02077C8.15263 7.02077 8.15263 6.26052 8.15263 6.10708C8.15263 5.98502 8.33229 5.80193 8.51195 5.80193C8.69162 5.80193 9.04923 5.80193 9.37775 5.80193C9.37775 5.61885 9.37775 4.98066 9.37775 4.4314C8.92945 4.4314 8.42127 4.4314 8.18343 4.4314C6.47921 4.49417 6.5083 5.80193 6.5083 5.98502Z" fill="#7F7F7F"/>
</svg>
