<svg width="75" height="66" viewBox="0 0 75 66" fill="none" xmlns="http://www.w3.org/2000/svg">
<g clip-path="url(#clip0)">
<path d="M45.2101 16.77C47.4201 17.62 49.5001 18.92 51.2901 20.71C51.5101 20.93 51.7101 21.17 51.9201 21.41C52.0901 21.6 52.2601 21.77 52.4201 21.97C53.4701 24.27 49.5201 30.84 43.1301 37.23C36.7401 43.62 30.1701 47.57 27.8701 46.52C27.6801 46.36 27.5001 46.18 27.3101 46.02C27.0801 45.81 26.8401 45.61 26.6101 45.39C24.8201 43.6 23.5201 41.53 22.6701 39.31C15.8901 48.29 12.7101 55.89 15.2701 58.44C18.9201 62.09 32.8601 54.06 46.4101 40.51C59.9601 26.96 67.9901 13.02 64.3401 9.36997C61.7901 6.81997 54.1801 9.98997 45.2101 16.77Z" stroke="#161513" stroke-width="3" stroke-miterlimit="10"/>
<path d="M46.4101 40.5099C42.7501 44.1699 39.0701 47.4199 35.5701 50.1499C41.0801 51.2399 47.0201 49.6599 51.2901 45.3899C55.5601 41.1199 57.1401 35.1799 56.0501 29.6699C53.3101 33.1699 50.0601 36.8499 46.4101 40.5099Z" stroke="#161513" stroke-width="3" stroke-miterlimit="10" stroke-linecap="round" stroke-linejoin="round"/>
<path d="M26.6102 20.7099C19.8002 27.5199 19.8002 38.5699 26.6102 45.3799C26.8302 45.5999 27.0702 45.7999 27.3102 46.0099C27.5002 46.1799 27.6702 46.3499 27.8702 46.5099C30.1702 47.5599 36.7402 43.6099 43.1302 37.2199C49.5202 30.8299 53.4702 24.2599 52.4202 21.9599C52.2602 21.7699 52.0802 21.5899 51.9202 21.3999C51.7102 21.1699 51.5102 20.9299 51.2902 20.6999C44.4702 13.8999 33.4302 13.8999 26.6102 20.7099Z" stroke="#161513" stroke-width="3" stroke-miterlimit="10"/>
<path d="M36.7302 34.3699C38.6853 34.3699 40.2702 32.785 40.2702 30.8299C40.2702 28.8748 38.6853 27.2899 36.7302 27.2899C34.7751 27.2899 33.1902 28.8748 33.1902 30.8299C33.1902 32.785 34.7751 34.3699 36.7302 34.3699Z" stroke="#161513" stroke-width="3" stroke-miterlimit="10"/>
<path d="M29.859 39.4726C30.7455 38.9428 30.7706 37.3527 29.9149 35.9209C29.0593 34.4892 27.647 33.7581 26.7605 34.2879C25.8739 34.8177 25.8489 36.4078 26.7045 37.8396C27.5602 39.2713 28.9725 40.0024 29.859 39.4726Z" stroke="#161513" stroke-width="3" stroke-miterlimit="10"/>
<path d="M45.512 23.8107C46.0418 22.9242 45.3106 21.5119 43.8789 20.6562C42.4472 19.8006 40.857 19.8256 40.3272 20.7122C39.7974 21.5987 40.5286 23.011 41.9603 23.8666C43.392 24.7223 44.9822 24.6972 45.512 23.8107Z" stroke="#161513" stroke-width="3" stroke-miterlimit="10"/>
<path d="M1.06006 40.07L16.8801 24.25" stroke="#161513" stroke-width="3" stroke-miterlimit="10"/>
<path d="M17.79 12.6301L29.36 1.06006" stroke="#161513" stroke-width="3" stroke-miterlimit="10"/>
<path d="M48.1101 64.52L60.2701 52.36" stroke="#161513" stroke-width="3" stroke-miterlimit="10"/>
<path d="M63.97 33.5099L71.66 25.8199" stroke="#161513" stroke-width="3" stroke-miterlimit="10"/>
<path d="M69.48 48.22L73.75 43.95" stroke="#161513" stroke-width="3" stroke-miterlimit="10"/>
</g>
<defs>
<clipPath id="clip0">
<rect width="74.81" height="65.58" fill="white"/>
</clipPath>
</defs>
</svg>
