<svg width="62" height="65" viewBox="0 0 62 65" fill="none" xmlns="http://www.w3.org/2000/svg">
<g clip-path="url(#clip0)">
<path d="M46.67 32.7C56.41 21.36 57.3 7.09998 57.3 7.09998C57.3 7.09998 43.04 7.98997 31.7 17.73C23.72 24.58 14.79 39.63 14.79 39.63L19.78 44.62L24.77 49.61C24.76 49.61 39.82 40.68 46.67 32.7Z" stroke="#161513" stroke-width="3" stroke-miterlimit="10"/>
<path d="M36.2198 41.9301C30.6598 46.0601 25.4098 49.2201 24.8198 49.5701L32.8998 57.6501L36.2198 41.9301Z" stroke="#161513" stroke-width="3" stroke-miterlimit="10"/>
<path d="M23.0599 27.39L6.18994 30.94L14.8299 39.58C15.1899 38.96 18.6399 33.23 23.0599 27.39Z" stroke="#161513" stroke-width="3" stroke-miterlimit="10"/>
<path d="M36.5801 14.14L50.5901 28.15" stroke="#161513" stroke-width="3" stroke-miterlimit="10"/>
<path d="M35.6499 34.26C38.693 34.26 41.1599 31.7931 41.1599 28.75C41.1599 25.7069 38.693 23.24 35.6499 23.24C32.6068 23.24 30.1399 25.7069 30.1399 28.75C30.1399 31.7931 32.6068 34.26 35.6499 34.26Z" stroke="#161513" stroke-width="3" stroke-miterlimit="10"/>
<path d="M16.1999 48.2L3.41992 60.9799" stroke="#161513" stroke-width="3" stroke-miterlimit="10"/>
<path d="M11.3101 41.0699L1.06006 51.3199" stroke="#161513" stroke-width="3" stroke-miterlimit="10"/>
<path d="M22.21 53.4399L11.96 63.6899" stroke="#161513" stroke-width="3" stroke-miterlimit="10"/>
<path d="M36.0601 1.06006L20.6201 16.5001" stroke="#161513" stroke-width="3" stroke-miterlimit="10"/>
<path d="M59.9701 40.98L48.3 52.65" stroke="#161513" stroke-width="3" stroke-miterlimit="10"/>
<path d="M15.11 10.99L8.80005 17.3" stroke="#161513" stroke-width="3" stroke-miterlimit="10"/>
</g>
<defs>
<clipPath id="clip0">
<rect width="61.03" height="64.75" fill="white"/>
</clipPath>
</defs>
</svg>
