<svg width="16" height="16" viewBox="0 0 16 16" fill="none" xmlns="http://www.w3.org/2000/svg">
<path d="M8.22456 15.7008C12.3117 15.7008 15.6249 12.3244 15.6249 8.15936C15.6249 3.99434 12.3117 0.61792 8.22456 0.61792C4.13746 0.61792 0.824219 3.99434 0.824219 8.15936C0.824219 12.3244 4.13746 15.7008 8.22456 15.7008Z" fill="#D7D7D7"/>
<path fill-rule="evenodd" clip-rule="evenodd" d="M8.12371 10.8603H8.68323C8.68323 10.8603 8.85262 10.8411 8.93818 10.747C9.01688 10.6598 9.01517 10.4959 9.01517 10.4959C9.01517 10.4959 9.00491 9.7304 9.35225 9.61706C9.69617 9.50547 10.1376 10.3564 10.6047 10.6842C10.9589 10.9318 11.2276 10.8777 11.2276 10.8777L12.4784 10.8603C12.4784 10.8603 13.132 10.8185 12.8223 10.2954C12.7966 10.2518 12.6409 9.90826 11.8915 9.19858C11.1061 8.45577 11.2122 8.57608 12.1567 7.29273C12.7316 6.51156 12.9626 6.03379 12.8907 5.82978C12.8223 5.63448 12.3997 5.68679 12.3997 5.68679L10.9914 5.69551C10.9914 5.69551 10.8871 5.68156 10.8101 5.72864C10.7348 5.77398 10.6852 5.88209 10.6852 5.88209C10.6852 5.88209 10.4627 6.48715 10.165 7.00153C9.53705 8.08611 9.28723 8.14365 9.18457 8.07739C8.94673 7.92046 9.00491 7.44617 9.00491 7.10964C9.00491 6.0582 9.16232 5.61879 8.70034 5.50545C8.54805 5.46709 8.43512 5.44268 8.04329 5.43919C7.54024 5.43396 7.1159 5.44093 6.87464 5.56125C6.7138 5.64146 6.5906 5.81931 6.66589 5.82978C6.75828 5.84198 6.97046 5.88732 7.08168 6.04251C7.2254 6.24303 7.22027 6.6929 7.22027 6.6929C7.22027 6.6929 7.3024 7.93092 7.02692 8.08436C6.83699 8.18898 6.57691 7.97451 6.0174 6.98933C5.73165 6.4854 5.51434 5.92742 5.51434 5.92742C5.51434 5.92742 5.47328 5.8228 5.39799 5.767C5.3073 5.699 5.1824 5.67808 5.1824 5.67808L3.84435 5.68679C3.84435 5.68679 3.64415 5.69203 3.56887 5.78095C3.50385 5.85942 3.56373 6.02333 3.56373 6.02333C3.56373 6.02333 4.6109 8.52203 5.79838 9.78097C6.88833 10.9353 8.12371 10.8603 8.12371 10.8603Z" fill="#808080"/>
</svg>
